<svg xmlns="http://www.w3.org/2000/svg" version="1.1" xmlns:xlink="http://www.w3.org/1999/xlink" xmlns:svgjs="http://svgjs.com/svgjs" width="1000" height="1000"><rect width="1000" height="1000" rx="250" ry="250" fill="#222831"></rect><g transform="matrix(33.333333333333336,0,0,33.333333333333336,100,100)"><svg xmlns="http://www.w3.org/2000/svg" version="1.1" xmlns:xlink="http://www.w3.org/1999/xlink" xmlns:svgjs="http://svgjs.com/svgjs" width="24" height="24"><svg xmlns="http://www.w3.org/2000/svg" classname="leftbar__logo" fill="#24b47e" viewBox="0 0 24 24">
        <g>
          <path fill="#222831" d="M0 0h24v24H0z"></path>
          <path d="M3.897 17.86l3.91-3.91 2.829 2.828 4.571-4.57L17 14V9h-5l1.793 1.793-3.157 3.157-2.828-2.829-4.946 4.946A9.965 9.965 0 0 1 2 12C2 6.477 6.477 2 12 2s10 4.477 10 10-4.477 10-10 10a9.987 9.987 0 0 1-8.103-4.14z"></path>
        </g>
      </svg></svg></g></svg>